<?xml version="1.0" encoding="UTF-8" standalone="no"?><svg xmlns="http://www.w3.org/2000/svg" xmlns:xlink="http://www.w3.org/1999/xlink" clip-rule="evenodd" stroke-miterlimit="4.00" viewBox="0 0 1920 1080"><desc>SVG generated by Keynote</desc><defs><pattern id="281CEB33-6A2D-4ED5-9CD4-A3B058EE733C" patternUnits="userSpaceOnUse" width="600" height="600" viewBox="0 0 600 600" patternTransform="matrix(0.500000, 0.000000, 0.000000, -0.500000, -0.749878, 1080.719000)"><image xlink:href="../../986CB8DF-4DB8-4C42-B826-88DA3776B891/assets/3B125388B1C2690D02541E1FFAB050B1.jpeg" width="600.00" height="600.00"></image></pattern></defs><g transform="matrix(1.00, 0.00, -0.00, -1.00, 0.0, 1080.0)"><path d="M 0.0 1080.0 L 1920.0 1080.0 L 1920.0 0.0 L 0.0 0.0 Z M 0.0 1080.0 " fill="#FEFFFF"></path><g><clipPath id="clip-8"><path d="M -0.7 1080.7 L 1920.8 1080.7 L 1920.8 -0.7 L -0.7 -0.7 Z M -0.7 1080.7 "></path></clipPath><g clip-path="url(#clip-8)"><path d="M 0.0 0.0 L 1920.0 0.0 L 1920.0 1080.0 L 0.0 1080.0 Z M 0.0 0.0 " fill="url(#281CEB33-6A2D-4ED5-9CD4-A3B058EE733C)"></path><path d="M -0.7 1080.7 L 1920.8 1080.7 L 1920.8 -0.7 L -0.7 -0.7 Z M -0.7 1080.7 " fill="#28ABE2"></path></g></g><text xml:space="preserve" font-family="AvenirNext-UltraLight" font-size="97.0" fill="#FEFFFF" transform="matrix(1.00, 0.00, -0.00, -1.00, 812.0, 509.0)">I</text><text xml:space="preserve" font-family="AvenirNext-UltraLight" font-size="97.0" fill="#FEFFFF" transform="matrix(1.00, 0.00, -0.00, -1.00, 834.7, 509.0)">D</text><text xml:space="preserve" font-family="AvenirNext-UltraLight" font-size="97.0" fill="#FEFFFF" transform="matrix(1.00, 0.00, -0.00, -1.00, 909.4, 509.0)">E</text><text xml:space="preserve" font-family="AvenirNext-UltraLight" font-size="97.0" fill="#FEFFFF" transform="matrix(1.00, 0.00, -0.00, -1.00, 966.6, 509.0)">A</text><text xml:space="preserve" font-family="AvenirNext-UltraLight" font-size="97.0" fill="#FEFFFF" transform="matrix(1.00, 0.00, -0.00, -1.00, 1029.5, 509.0)"> </text><text xml:space="preserve" font-family="AvenirNext-UltraLight" font-size="97.0" fill="#FEFFFF" transform="matrix(1.00, 0.00, -0.00, -1.00, 1053.7, 509.0)">1</text></g></svg>