<?xml version="1.0" encoding="UTF-8" standalone="no"?><svg xmlns="http://www.w3.org/2000/svg" xmlns:xlink="http://www.w3.org/1999/xlink" clip-rule="evenodd" stroke-miterlimit="4.00" viewBox="0 0 1920 1080"><desc>SVG generated by Keynote</desc><defs><pattern id="BD8EF2D8-059F-4A56-8618-CE100A767FCE" patternUnits="userSpaceOnUse" width="600" height="600" viewBox="0 0 600 600" patternTransform="matrix(0.500000, 0.000000, 0.000000, -0.500000, -0.749878, 1080.719000)"><image xlink:href="../../986CB8DF-4DB8-4C42-B826-88DA3776B891/assets/3B125388B1C2690D02541E1FFAB050B1.jpeg" width="600.00" height="600.00"></image></pattern></defs><g transform="matrix(1.00, 0.00, -0.00, -1.00, 0.0, 1080.0)"><path d="M 0.0 1080.0 L 1920.0 1080.0 L 1920.0 0.0 L 0.0 0.0 Z M 0.0 1080.0 " fill="#FEFFFF"></path><g><clipPath id="clip-7"><path d="M -0.7 1080.7 L 1920.8 1080.7 L 1920.8 -0.7 L -0.7 -0.7 Z M -0.7 1080.7 "></path></clipPath><g clip-path="url(#clip-7)"><path d="M 0.0 0.0 L 1920.0 0.0 L 1920.0 1080.0 L 0.0 1080.0 Z M 0.0 0.0 " fill="url(#BD8EF2D8-059F-4A56-8618-CE100A767FCE)"></path><path d="M -0.7 1080.7 L 1920.8 1080.7 L 1920.8 -0.7 L -0.7 -0.7 Z M -0.7 1080.7 " fill="#28ABE2"></path></g></g><text xml:space="preserve" font-family="AvenirNext-UltraLight" font-size="97.0" fill="#FEFFFF" transform="matrix(2.18, 0.00, -0.00, -2.18, 381.0, 472.0)">M</text><text xml:space="preserve" font-family="AvenirNext-UltraLight" font-size="97.0" fill="#FEFFFF" transform="matrix(2.18, 0.00, -0.00, -2.18, 572.7, 472.0)">I</text><text xml:space="preserve" font-family="AvenirNext-UltraLight" font-size="97.0" fill="#FEFFFF" transform="matrix(2.18, 0.00, -0.00, -2.18, 622.2, 472.0)">L</text><text xml:space="preserve" font-family="AvenirNext-UltraLight" font-size="97.0" fill="#FEFFFF" transform="matrix(2.18, 0.00, -0.00, -2.18, 727.6, 472.0)">L</text><text xml:space="preserve" font-family="AvenirNext-UltraLight" font-size="97.0" fill="#FEFFFF" transform="matrix(2.18, 0.00, -0.00, -2.18, 832.9, 472.0)">E</text><text xml:space="preserve" font-family="AvenirNext-UltraLight" font-size="97.0" fill="#FEFFFF" transform="matrix(2.18, 0.00, -0.00, -2.18, 957.8, 472.0)">N</text><text xml:space="preserve" font-family="AvenirNext-UltraLight" font-size="97.0" fill="#FEFFFF" transform="matrix(2.18, 0.00, -0.00, -2.18, 1122.2, 472.0)">I</text><text xml:space="preserve" font-family="AvenirNext-UltraLight" font-size="97.0" fill="#FEFFFF" transform="matrix(2.18, 0.00, -0.00, -2.18, 1171.7, 472.0)">A</text><text xml:space="preserve" font-family="AvenirNext-UltraLight" font-size="97.0" fill="#FEFFFF" transform="matrix(2.18, 0.00, -0.00, -2.18, 1312.6, 472.0)">L</text><text xml:space="preserve" font-family="AvenirNext-UltraLight" font-size="97.0" fill="#FEFFFF" transform="matrix(2.18, 0.00, -0.00, -2.18, 1418.0, 472.0)">S</text><image xlink:href="../../65188A1B-F721-4DCE-8249-D0171F3D7A43/assets/B8A90AD0771468219844720CCD64AD80.png" width="500.00" height="333.00" transform="matrix(1.33, 0.00, -0.00, -1.34, 1256.0, 436.0)"></image><image xlink:href="../../65188A1B-F721-4DCE-8249-D0171F3D7A43/assets/D97D37F13051AD6CBABA04EF2C719691.png" width="485.00" height="418.00" transform="matrix(-1.06, 0.00, 0.00, 1.06, 888.0, 684.0)"></image><image xlink:href="../../65188A1B-F721-4DCE-8249-D0171F3D7A43/assets/994C2AFE2CF0D5704737815E70F264DF.png" width="422.00" height="445.00" transform="matrix(1.00, 0.00, -0.00, -1.00, -2.0, 432.0)"></image><image xlink:href="../../65188A1B-F721-4DCE-8249-D0171F3D7A43/assets/DA3F750A2760039D2CAC61FB0C4BF14F.png" width="393.00" height="445.00" transform="matrix(1.00, 0.00, -0.00, -1.00, 872.0, 432.0)"></image><image xlink:href="../../65188A1B-F721-4DCE-8249-D0171F3D7A43/assets/6942035BB77042456464AAEC3235EAF3.png" width="394.00" height="541.00" transform="matrix(0.00, 1.10, 1.10, -0.00, 1404.0, 385.0)"></image><image xlink:href="../../65188A1B-F721-4DCE-8249-D0171F3D7A43/assets/37F0EA0F8690D28847DBC7E871A0EC1C.png" width="756.00" height="539.00" transform="matrix(2.00, 0.00, -0.00, -2.00, 356.0, 677.0)"></image><image xlink:href="../../65188A1B-F721-4DCE-8249-D0171F3D7A43/assets/AE54F568D9F473ED922092D5FA5DA30C.png" width="813.00" height="521.00" transform="matrix(-1.00, 0.00, 0.00, 1.00, 1625.0, 646.0)"></image><image xlink:href="../../65188A1B-F721-4DCE-8249-D0171F3D7A43/assets/F913C22AE75C132D1925312AF4A5F132.png" width="640.00" height="450.00" transform="matrix(0.00, -1.09, -1.10, 0.00, 477.0, 1112.0)"></image></g></svg>