<?xml version="1.0" encoding="UTF-8" standalone="no"?><svg xmlns="http://www.w3.org/2000/svg" xmlns:xlink="http://www.w3.org/1999/xlink" clip-rule="evenodd" stroke-miterlimit="4.00" viewBox="0 0 1920 1080"><desc>SVG generated by Keynote</desc><defs><pattern id="5D374CC5-E552-486C-A451-8C75DBE6D241" patternUnits="userSpaceOnUse" width="600" height="600" viewBox="0 0 600 600" patternTransform="matrix(0.500000, 0.000000, 0.000000, -0.500000, -0.749912, 1080.719000)"><image xlink:href="../../986CB8DF-4DB8-4C42-B826-88DA3776B891/assets/3B125388B1C2690D02541E1FFAB050B1.jpeg" width="600.00" height="600.00"></image></pattern></defs><g transform="matrix(1.00, 0.00, -0.00, -1.00, 0.0, 1080.0)"><path d="M 0.0 1080.0 L 1920.0 1080.0 L 1920.0 0.0 L 0.0 0.0 Z M 0.0 1080.0 " fill="#FEFFFF"></path><g><clipPath id="clip-24"><path d="M -0.7 1080.7 L 1920.8 1080.7 L 1920.8 -0.7 L -0.7 -0.7 Z M -0.7 1080.7 "></path></clipPath><g clip-path="url(#clip-24)"><path d="M 0.0 0.0 L 1920.0 0.0 L 1920.0 1080.0 L 0.0 1080.0 Z M 0.0 0.0 " fill="url(#5D374CC5-E552-486C-A451-8C75DBE6D241)"></path><path d="M -0.7 1080.7 L 1920.8 1080.7 L 1920.8 -0.7 L -0.7 -0.7 Z M -0.7 1080.7 " fill="#28ABE2"></path></g></g><g><clipPath id="clip-25"><path d="M 734.0 1010.0 L 1882.0 1010.0 L 1882.0 70.0 L 734.0 70.0 Z M 733.7 1009.9 "></path></clipPath><g clip-path="url(#clip-25)"><image xlink:href="5A98110CD6F0590C6A84A0C6F5AD1696.jpeg" width="995.00" height="768.00" transform="matrix(1.50, 0.00, -0.00, -1.50, 484.0, 1139.0)"></image></g></g><text xml:space="preserve" font-family="AvenirNext-Bold" font-weight="bold" font-size="50.0" fill="#FEFFFF" transform="matrix(1.00, 0.00, -0.00, -1.00, 141.0, 936.0)">Y</text><text xml:space="preserve" font-family="AvenirNext-Bold" font-weight="bold" font-size="50.0" fill="#FEFFFF" transform="matrix(1.00, 0.00, -0.00, -1.00, 169.3, 936.0)">e</text><text xml:space="preserve" font-family="AvenirNext-Bold" font-weight="bold" font-size="50.0" fill="#FEFFFF" transform="matrix(1.00, 0.00, -0.00, -1.00, 199.2, 936.0)">p</text><text xml:space="preserve" font-family="AvenirNext-Bold" font-weight="bold" font-size="50.0" fill="#FEFFFF" transform="matrix(1.00, 0.00, -0.00, -1.00, 231.4, 936.0)">.</text><text xml:space="preserve" font-family="AvenirNext-Bold" font-weight="bold" font-size="50.0" fill="#FEFFFF" transform="matrix(1.00, 0.00, -0.00, -1.00, 244.9, 936.0)"> </text><text xml:space="preserve" font-family="AvenirNext-Bold" font-weight="bold" font-size="50.0" fill="#FEFFFF" transform="matrix(1.00, 0.00, -0.00, -1.00, 256.8, 936.0)">W</text><text xml:space="preserve" font-family="AvenirNext-Bold" font-weight="bold" font-size="50.0" fill="#FEFFFF" transform="matrix(1.00, 0.00, -0.00, -1.00, 306.2, 936.0)">e</text><text xml:space="preserve" font-family="AvenirNext-Bold" font-weight="bold" font-size="50.0" fill="#FEFFFF" transform="matrix(1.00, 0.00, -0.00, -1.00, 336.1, 936.0)"> </text><text xml:space="preserve" font-family="AvenirNext-Bold" font-weight="bold" font-size="50.0" fill="#FEFFFF" transform="matrix(1.00, 0.00, -0.00, -1.00, 348.6, 936.0)">m</text><text xml:space="preserve" font-family="AvenirNext-Bold" font-weight="bold" font-size="50.0" fill="#FEFFFF" transform="matrix(1.00, 0.00, -0.00, -1.00, 394.8, 936.0)">a</text><text xml:space="preserve" font-family="AvenirNext-Bold" font-weight="bold" font-size="50.0" fill="#FEFFFF" transform="matrix(1.00, 0.00, -0.00, -1.00, 423.1, 936.0)">d</text><text xml:space="preserve" font-family="AvenirNext-Bold" font-weight="bold" font-size="50.0" fill="#FEFFFF" transform="matrix(1.00, 0.00, -0.00, -1.00, 455.9, 936.0)">e</text><text xml:space="preserve" font-family="AvenirNext-Bold" font-weight="bold" font-size="50.0" fill="#FEFFFF" transform="matrix(1.00, 0.00, -0.00, -1.00, 485.8, 936.0)"> </text><text xml:space="preserve" font-family="AvenirNext-Bold" font-weight="bold" font-size="50.0" fill="#FEFFFF" transform="matrix(1.00, 0.00, -0.00, -1.00, 498.2, 936.0)">a</text><text xml:space="preserve" font-family="AvenirNext-Bold" font-weight="bold" font-size="50.0" fill="#FEFFFF" transform="matrix(1.00, 0.00, -0.00, -1.00, 526.5, 936.0)">n</text><text xml:space="preserve" font-family="AvenirNext-Bold" font-weight="bold" font-size="50.0" fill="#FEFFFF" transform="matrix(1.00, 0.00, -0.00, -1.00, 557.4, 936.0)"> </text><text xml:space="preserve" font-family="AvenirNext-Bold" font-weight="bold" font-size="50.0" fill="#FEFFFF" transform="matrix(1.00, 0.00, -0.00, -1.00, 180.0, 868.0)">E</text><text xml:space="preserve" font-family="AvenirNext-Bold" font-weight="bold" font-size="50.0" fill="#FEFFFF" transform="matrix(1.00, 0.00, -0.00, -1.00, 210.3, 868.0)">s</text><text xml:space="preserve" font-family="AvenirNext-Bold" font-weight="bold" font-size="50.0" fill="#FEFFFF" transform="matrix(1.00, 0.00, -0.00, -1.00, 233.9, 868.0)">c</text><text xml:space="preserve" font-family="AvenirNext-Bold" font-weight="bold" font-size="50.0" fill="#FEFFFF" transform="matrix(1.00, 0.00, -0.00, -1.00, 259.1, 868.0)">a</text><text xml:space="preserve" font-family="AvenirNext-Bold" font-weight="bold" font-size="50.0" fill="#FEFFFF" transform="matrix(1.00, 0.00, -0.00, -1.00, 287.4, 868.0)">p</text><text xml:space="preserve" font-family="AvenirNext-Bold" font-weight="bold" font-size="50.0" fill="#FEFFFF" transform="matrix(1.00, 0.00, -0.00, -1.00, 320.2, 868.0)">e</text><text xml:space="preserve" font-family="AvenirNext-Bold" font-weight="bold" font-size="50.0" fill="#FEFFFF" transform="matrix(1.00, 0.00, -0.00, -1.00, 350.1, 868.0)"> </text><text xml:space="preserve" font-family="AvenirNext-Bold" font-weight="bold" font-size="50.0" fill="#FEFFFF" transform="matrix(1.00, 0.00, -0.00, -1.00, 362.6, 868.0)">R</text><text xml:space="preserve" font-family="AvenirNext-Bold" font-weight="bold" font-size="50.0" fill="#FEFFFF" transform="matrix(1.00, 0.00, -0.00, -1.00, 395.1, 868.0)">o</text><text xml:space="preserve" font-family="AvenirNext-Bold" font-weight="bold" font-size="50.0" fill="#FEFFFF" transform="matrix(1.00, 0.00, -0.00, -1.00, 426.7, 868.0)">o</text><text xml:space="preserve" font-family="AvenirNext-Bold" font-weight="bold" font-size="50.0" fill="#FEFFFF" transform="matrix(1.00, 0.00, -0.00, -1.00, 458.3, 868.0)">m</text><text xml:space="preserve" font-family="AvenirNext-Bold" font-weight="bold" font-size="50.0" fill="#FEFFFF" transform="matrix(1.00, 0.00, -0.00, -1.00, 504.5, 868.0)">.</text><text xml:space="preserve" font-family="AvenirNext-Bold" font-weight="bold" font-size="50.0" fill="#FEFFFF" transform="matrix(1.00, 0.00, -0.00, -1.00, 518.0, 868.0)"> </text><text xml:space="preserve" font-family="AvenirNext-Regular" font-size="50.0" fill="#FEFFFF" transform="matrix(1.00, 0.00, -0.00, -1.00, 91.0, 732.3)">•</text><text xml:space="preserve" font-family="AvenirNext-Regular" font-size="50.0" fill="#FEFFFF" transform="matrix(1.00, 0.00, -0.00, -1.00, 116.0, 732.0)">Y</text><text xml:space="preserve" font-family="AvenirNext-Regular" font-size="50.0" fill="#FEFFFF" transform="matrix(1.00, 0.00, -0.00, -1.00, 141.6, 732.0)">o</text><text xml:space="preserve" font-family="AvenirNext-Regular" font-size="50.0" fill="#FEFFFF" transform="matrix(1.00, 0.00, -0.00, -1.00, 172.2, 732.0)">u</text><text xml:space="preserve" font-family="AvenirNext-Regular" font-size="50.0" fill="#FEFFFF" transform="matrix(1.00, 0.00, -0.00, -1.00, 201.2, 732.0)"> </text><text xml:space="preserve" font-family="AvenirNext-Regular" font-size="50.0" fill="#FEFFFF" transform="matrix(1.00, 0.00, -0.00, -1.00, 213.7, 732.0)">h</text><text xml:space="preserve" font-family="AvenirNext-Regular" font-size="50.0" fill="#FEFFFF" transform="matrix(1.00, 0.00, -0.00, -1.00, 242.9, 732.0)">a</text><text xml:space="preserve" font-family="AvenirNext-Regular" font-size="50.0" fill="#FEFFFF" transform="matrix(1.00, 0.00, -0.00, -1.00, 269.6, 732.0)">v</text><text xml:space="preserve" font-family="AvenirNext-Regular" font-size="50.0" fill="#FEFFFF" transform="matrix(1.00, 0.00, -0.00, -1.00, 294.0, 732.0)">e</text><text xml:space="preserve" font-family="AvenirNext-Regular" font-size="50.0" fill="#FEFFFF" transform="matrix(1.00, 0.00, -0.00, -1.00, 322.6, 732.0)"> </text><text xml:space="preserve" font-family="AvenirNext-Regular" font-size="50.0" fill="#FEFFFF" transform="matrix(1.00, 0.00, -0.00, -1.00, 335.1, 732.0)">3</text><text xml:space="preserve" font-family="AvenirNext-Regular" font-size="50.0" fill="#FEFFFF" transform="matrix(1.00, 0.00, -0.00, -1.00, 364.1, 732.0)">0</text><text xml:space="preserve" font-family="AvenirNext-Regular" font-size="50.0" fill="#FEFFFF" transform="matrix(1.00, 0.00, -0.00, -1.00, 393.1, 732.0)"> </text><text xml:space="preserve" font-family="AvenirNext-Regular" font-size="50.0" fill="#FEFFFF" transform="matrix(1.00, 0.00, -0.00, -1.00, 405.6, 732.0)">m</text><text xml:space="preserve" font-family="AvenirNext-Regular" font-size="50.0" fill="#FEFFFF" transform="matrix(1.00, 0.00, -0.00, -1.00, 449.7, 732.0)">i</text><text xml:space="preserve" font-family="AvenirNext-Regular" font-size="50.0" fill="#FEFFFF" transform="matrix(1.00, 0.00, -0.00, -1.00, 462.2, 732.0)">n</text><text xml:space="preserve" font-family="AvenirNext-Regular" font-size="50.0" fill="#FEFFFF" transform="matrix(1.00, 0.00, -0.00, -1.00, 491.3, 732.0)">u</text><text xml:space="preserve" font-family="AvenirNext-Regular" font-size="50.0" fill="#FEFFFF" transform="matrix(1.00, 0.00, -0.00, -1.00, 520.3, 732.0)">t</text><text xml:space="preserve" font-family="AvenirNext-Regular" font-size="50.0" fill="#FEFFFF" transform="matrix(1.00, 0.00, -0.00, -1.00, 536.2, 732.0)">e</text><text xml:space="preserve" font-family="AvenirNext-Regular" font-size="50.0" fill="#FEFFFF" transform="matrix(1.00, 0.00, -0.00, -1.00, 564.8, 732.0)">s</text><text xml:space="preserve" font-family="AvenirNext-Regular" font-size="50.0" fill="#FEFFFF" transform="matrix(1.00, 0.00, -0.00, -1.00, 587.0, 732.0)"> </text><text xml:space="preserve" font-family="AvenirNext-Regular" font-size="50.0" fill="#FEFFFF" transform="matrix(1.00, 0.00, -0.00, -1.00, 91.0, 651.3)">•</text><text xml:space="preserve" font-family="AvenirNext-Regular" font-size="50.0" fill="#FEFFFF" transform="matrix(1.00, 0.00, -0.00, -1.00, 116.0, 651.0)">M</text><text xml:space="preserve" font-family="AvenirNext-Regular" font-size="50.0" fill="#FEFFFF" transform="matrix(1.00, 0.00, -0.00, -1.00, 160.3, 651.0)">i</text><text xml:space="preserve" font-family="AvenirNext-Regular" font-size="50.0" fill="#FEFFFF" transform="matrix(1.00, 0.00, -0.00, -1.00, 172.8, 651.0)">m</text><text xml:space="preserve" font-family="AvenirNext-Regular" font-size="50.0" fill="#FEFFFF" transform="matrix(1.00, 0.00, -0.00, -1.00, 217.0, 651.0)">i</text><text xml:space="preserve" font-family="AvenirNext-Regular" font-size="50.0" fill="#FEFFFF" transform="matrix(1.00, 0.00, -0.00, -1.00, 229.5, 651.0)">c</text><text xml:space="preserve" font-family="AvenirNext-Regular" font-size="50.0" fill="#FEFFFF" transform="matrix(1.00, 0.00, -0.00, -1.00, 254.5, 651.0)">s</text><text xml:space="preserve" font-family="AvenirNext-Regular" font-size="50.0" fill="#FEFFFF" transform="matrix(1.00, 0.00, -0.00, -1.00, 276.7, 651.0)"> </text><text xml:space="preserve" font-family="AvenirNext-Regular" font-size="50.0" fill="#FEFFFF" transform="matrix(1.00, 0.00, -0.00, -1.00, 289.2, 651.0)">t</text><text xml:space="preserve" font-family="AvenirNext-Regular" font-size="50.0" fill="#FEFFFF" transform="matrix(1.00, 0.00, -0.00, -1.00, 305.0, 651.0)">h</text><text xml:space="preserve" font-family="AvenirNext-Regular" font-size="50.0" fill="#FEFFFF" transform="matrix(1.00, 0.00, -0.00, -1.00, 334.2, 651.0)">e</text><text xml:space="preserve" font-family="AvenirNext-Regular" font-size="50.0" fill="#FEFFFF" transform="matrix(1.00, 0.00, -0.00, -1.00, 362.8, 651.0)"> </text><text xml:space="preserve" font-family="AvenirNext-Regular" font-size="50.0" fill="#FEFFFF" transform="matrix(1.00, 0.00, -0.00, -1.00, 375.2, 651.0)">l</text><text xml:space="preserve" font-family="AvenirNext-Regular" font-size="50.0" fill="#FEFFFF" transform="matrix(1.00, 0.00, -0.00, -1.00, 387.9, 651.0)">o</text><text xml:space="preserve" font-family="AvenirNext-Regular" font-size="50.0" fill="#FEFFFF" transform="matrix(1.00, 0.00, -0.00, -1.00, 418.4, 651.0)">o</text><text xml:space="preserve" font-family="AvenirNext-Regular" font-size="50.0" fill="#FEFFFF" transform="matrix(1.00, 0.00, -0.00, -1.00, 449.0, 651.0)">k</text><text xml:space="preserve" font-family="AvenirNext-Regular" font-size="50.0" fill="#FEFFFF" transform="matrix(1.00, 0.00, -0.00, -1.00, 474.5, 651.0)"> </text><text xml:space="preserve" font-family="AvenirNext-Regular" font-size="50.0" fill="#FEFFFF" transform="matrix(1.00, 0.00, -0.00, -1.00, 487.0, 651.0)">o</text><text xml:space="preserve" font-family="AvenirNext-Regular" font-size="50.0" fill="#FEFFFF" transform="matrix(1.00, 0.00, -0.00, -1.00, 517.5, 651.0)">f</text><text xml:space="preserve" font-family="AvenirNext-Regular" font-size="50.0" fill="#FEFFFF" transform="matrix(1.00, 0.00, -0.00, -1.00, 533.5, 651.0)"> </text><text xml:space="preserve" font-family="AvenirNext-Regular" font-size="50.0" fill="#FEFFFF" transform="matrix(1.00, 0.00, -0.00, -1.00, 546.0, 651.0)">a</text><text xml:space="preserve" font-family="AvenirNext-Regular" font-size="50.0" fill="#FEFFFF" transform="matrix(1.00, 0.00, -0.00, -1.00, 572.7, 651.0)"> </text><text xml:space="preserve" font-family="AvenirNext-Regular" font-size="50.0" fill="#FEFFFF" transform="matrix(1.00, 0.00, -0.00, -1.00, 109.0, 583.0)">d</text><text xml:space="preserve" font-family="AvenirNext-Regular" font-size="50.0" fill="#FEFFFF" transform="matrix(1.00, 0.00, -0.00, -1.00, 140.8, 583.0)">e</text><text xml:space="preserve" font-family="AvenirNext-Regular" font-size="50.0" fill="#FEFFFF" transform="matrix(1.00, 0.00, -0.00, -1.00, 169.2, 583.0)">a</text><text xml:space="preserve" font-family="AvenirNext-Regular" font-size="50.0" fill="#FEFFFF" transform="matrix(1.00, 0.00, -0.00, -1.00, 195.9, 583.0)">l</text><text xml:space="preserve" font-family="AvenirNext-Regular" font-size="50.0" fill="#FEFFFF" transform="matrix(1.00, 0.00, -0.00, -1.00, 208.5, 583.0)">e</text><text xml:space="preserve" font-family="AvenirNext-Regular" font-size="50.0" fill="#FEFFFF" transform="matrix(1.00, 0.00, -0.00, -1.00, 237.1, 583.0)">r</text><text xml:space="preserve" font-family="AvenirNext-Regular" font-size="50.0" fill="#FEFFFF" transform="matrix(1.00, 0.00, -0.00, -1.00, 255.1, 583.0)">s</text><text xml:space="preserve" font-family="AvenirNext-Regular" font-size="50.0" fill="#FEFFFF" transform="matrix(1.00, 0.00, -0.00, -1.00, 277.2, 583.0)">h</text><text xml:space="preserve" font-family="AvenirNext-Regular" font-size="50.0" fill="#FEFFFF" transform="matrix(1.00, 0.00, -0.00, -1.00, 306.4, 583.0)">i</text><text xml:space="preserve" font-family="AvenirNext-Regular" font-size="50.0" fill="#FEFFFF" transform="matrix(1.00, 0.00, -0.00, -1.00, 318.9, 583.0)">p</text><text xml:space="preserve" font-family="AvenirNext-Regular" font-size="50.0" fill="#FEFFFF" transform="matrix(1.00, 0.00, -0.00, -1.00, 350.6, 583.0)"> </text><text xml:space="preserve" font-family="AvenirNext-Regular" font-size="50.0" fill="#FEFFFF" transform="matrix(1.00, 0.00, -0.00, -1.00, 363.1, 583.0)">o</text><text xml:space="preserve" font-family="AvenirNext-Regular" font-size="50.0" fill="#FEFFFF" transform="matrix(1.00, 0.00, -0.00, -1.00, 393.7, 583.0)">f</text><text xml:space="preserve" font-family="AvenirNext-Regular" font-size="50.0" fill="#FEFFFF" transform="matrix(1.00, 0.00, -0.00, -1.00, 407.6, 583.0)">ﬁ</text><text xml:space="preserve" font-family="AvenirNext-Regular" font-size="50.0" fill="#FEFFFF" transform="matrix(1.00, 0.00, -0.00, -1.00, 434.8, 583.0)">c</text><text xml:space="preserve" font-family="AvenirNext-Regular" font-size="50.0" fill="#FEFFFF" transform="matrix(1.00, 0.00, -0.00, -1.00, 459.8, 583.0)">e</text><text xml:space="preserve" font-family="AvenirNext-Regular" font-size="50.0" fill="#FEFFFF" transform="matrix(1.00, 0.00, -0.00, -1.00, 488.4, 583.0)"> </text><text xml:space="preserve" font-family="AvenirNext-Regular" font-size="50.0" fill="#FEFFFF" transform="matrix(1.00, 0.00, -0.00, -1.00, 500.9, 583.0)"> </text><text xml:space="preserve" font-family="AvenirNext-Regular" font-size="50.0" fill="#FEFFFF" transform="matrix(1.00, 0.00, -0.00, -1.00, 91.0, 502.3)">•</text><text xml:space="preserve" font-family="AvenirNext-Regular" font-size="50.0" fill="#FEFFFF" transform="matrix(1.00, 0.00, -0.00, -1.00, 116.0, 502.0)">G</text><text xml:space="preserve" font-family="AvenirNext-Regular" font-size="50.0" fill="#FEFFFF" transform="matrix(1.00, 0.00, -0.00, -1.00, 154.9, 502.0)">r</text><text xml:space="preserve" font-family="AvenirNext-Regular" font-size="50.0" fill="#FEFFFF" transform="matrix(1.00, 0.00, -0.00, -1.00, 172.1, 502.0)">o</text><text xml:space="preserve" font-family="AvenirNext-Regular" font-size="50.0" fill="#FEFFFF" transform="matrix(1.00, 0.00, -0.00, -1.00, 202.6, 502.0)">u</text><text xml:space="preserve" font-family="AvenirNext-Regular" font-size="50.0" fill="#FEFFFF" transform="matrix(1.00, 0.00, -0.00, -1.00, 231.7, 502.0)">p</text><text xml:space="preserve" font-family="AvenirNext-Regular" font-size="50.0" fill="#FEFFFF" transform="matrix(1.00, 0.00, -0.00, -1.00, 263.4, 502.0)">s</text><text xml:space="preserve" font-family="AvenirNext-Regular" font-size="50.0" fill="#FEFFFF" transform="matrix(1.00, 0.00, -0.00, -1.00, 285.6, 502.0)"> </text><text xml:space="preserve" font-family="AvenirNext-Regular" font-size="50.0" fill="#FEFFFF" transform="matrix(1.00, 0.00, -0.00, -1.00, 298.1, 502.0)">o</text><text xml:space="preserve" font-family="AvenirNext-Regular" font-size="50.0" fill="#FEFFFF" transform="matrix(1.00, 0.00, -0.00, -1.00, 328.7, 502.0)">f</text><text xml:space="preserve" font-family="AvenirNext-Regular" font-size="50.0" fill="#FEFFFF" transform="matrix(1.00, 0.00, -0.00, -1.00, 344.6, 502.0)"> </text><text xml:space="preserve" font-family="AvenirNext-Regular" font-size="50.0" fill="#FEFFFF" transform="matrix(1.00, 0.00, -0.00, -1.00, 357.1, 502.0)">3</text><text xml:space="preserve" font-family="AvenirNext-Regular" font-size="50.0" fill="#FEFFFF" transform="matrix(1.00, 0.00, -0.00, -1.00, 386.1, 502.0)">-</text><text xml:space="preserve" font-family="AvenirNext-Regular" font-size="50.0" fill="#FEFFFF" transform="matrix(1.00, 0.00, -0.00, -1.00, 402.1, 502.0)">4</text><text xml:space="preserve" font-family="AvenirNext-Regular" font-size="50.0" fill="#FEFFFF" transform="matrix(1.00, 0.00, -0.00, -1.00, 431.1, 502.0)"> </text><text xml:space="preserve" font-family="AvenirNext-Regular" font-size="50.0" fill="#FEFFFF" transform="matrix(1.00, 0.00, -0.00, -1.00, 91.0, 421.3)">•</text><text xml:space="preserve" font-family="AvenirNext-Regular" font-size="50.0" fill="#FEFFFF" transform="matrix(1.00, 0.00, -0.00, -1.00, 116.0, 421.0)">1</text><text xml:space="preserve" font-family="AvenirNext-Regular" font-size="50.0" fill="#FEFFFF" transform="matrix(1.00, 0.00, -0.00, -1.00, 145.0, 421.0)">5</text><text xml:space="preserve" font-family="AvenirNext-Regular" font-size="50.0" fill="#FEFFFF" transform="matrix(1.00, 0.00, -0.00, -1.00, 174.0, 421.0)">’</text><text xml:space="preserve" font-family="AvenirNext-Regular" font-size="50.0" fill="#FEFFFF" transform="matrix(1.00, 0.00, -0.00, -1.00, 185.1, 421.0)"> </text><text xml:space="preserve" font-family="AvenirNext-Regular" font-size="50.0" fill="#FEFFFF" transform="matrix(1.00, 0.00, -0.00, -1.00, 197.6, 421.0)">x</text><text xml:space="preserve" font-family="AvenirNext-Regular" font-size="50.0" fill="#FEFFFF" transform="matrix(1.00, 0.00, -0.00, -1.00, 221.8, 421.0)"> </text><text xml:space="preserve" font-family="AvenirNext-Regular" font-size="50.0" fill="#FEFFFF" transform="matrix(1.00, 0.00, -0.00, -1.00, 234.3, 421.0)">1</text><text xml:space="preserve" font-family="AvenirNext-Regular" font-size="50.0" fill="#FEFFFF" transform="matrix(1.00, 0.00, -0.00, -1.00, 263.3, 421.0)">5</text><text xml:space="preserve" font-family="AvenirNext-Regular" font-size="50.0" fill="#FEFFFF" transform="matrix(1.00, 0.00, -0.00, -1.00, 292.3, 421.0)">’</text><text xml:space="preserve" font-family="AvenirNext-Regular" font-size="50.0" fill="#FEFFFF" transform="matrix(1.00, 0.00, -0.00, -1.00, 303.4, 421.0)"> </text></g></svg>