<?xml version="1.0" encoding="UTF-8" standalone="no"?><svg xmlns="http://www.w3.org/2000/svg" xmlns:xlink="http://www.w3.org/1999/xlink" clip-rule="evenodd" stroke-miterlimit="4.00" viewBox="0 0 1920 1080"><desc>SVG generated by Keynote</desc><defs><pattern id="C0CB791D-D145-4C06-988E-C3C2A7981AF7" patternUnits="userSpaceOnUse" width="600" height="600" viewBox="0 0 600 600" patternTransform="matrix(0.500000, 0.000000, 0.000000, -0.500000, -0.749878, 1080.719000)"><image xlink:href="../../986CB8DF-4DB8-4C42-B826-88DA3776B891/assets/3B125388B1C2690D02541E1FFAB050B1.jpeg" width="600.00" height="600.00"></image></pattern></defs><g transform="matrix(1.00, 0.00, -0.00, -1.00, 0.0, 1080.0)"><path d="M 0.0 1080.0 L 1920.0 1080.0 L 1920.0 0.0 L 0.0 0.0 Z M 0.0 1080.0 " fill="#FEFFFF"></path><g><clipPath id="clip-114"><path d="M -0.7 1080.7 L 1920.8 1080.7 L 1920.8 -0.7 L -0.7 -0.7 Z M -0.7 1080.7 "></path></clipPath><g clip-path="url(#clip-114)"><path d="M 0.0 0.0 L 1920.0 0.0 L 1920.0 1080.0 L 0.0 1080.0 Z M 0.0 0.0 " fill="url(#C0CB791D-D145-4C06-988E-C3C2A7981AF7)"></path><path d="M -0.7 1080.7 L 1920.8 1080.7 L 1920.8 -0.7 L -0.7 -0.7 Z M -0.7 1080.7 " fill="#28ABE2"></path></g></g><image xlink:href="9C49C2B84E1D9DF699080300F1555C6F.jpeg" width="769.00" height="769.00" transform="matrix(1.30, 0.00, -0.00, -1.30, 877.0, 1040.0)"></image><text xml:space="preserve" font-family="AvenirNext-Medium" font-size="50.0" fill="#FEFFFF" transform="matrix(1.00, 0.00, -0.00, -1.00, 183.0, 884.0)">V</text><text xml:space="preserve" font-family="AvenirNext-Medium" font-size="50.0" fill="#FEFFFF" transform="matrix(1.00, 0.00, -0.00, -1.00, 213.0, 884.0)">o</text><text xml:space="preserve" font-family="AvenirNext-Medium" font-size="50.0" fill="#FEFFFF" transform="matrix(1.00, 0.00, -0.00, -1.00, 243.5, 884.0)">i</text><text xml:space="preserve" font-family="AvenirNext-Medium" font-size="50.0" fill="#FEFFFF" transform="matrix(1.00, 0.00, -0.00, -1.00, 256.4, 884.0)">c</text><text xml:space="preserve" font-family="AvenirNext-Medium" font-size="50.0" fill="#FEFFFF" transform="matrix(1.00, 0.00, -0.00, -1.00, 281.1, 884.0)">e</text><text xml:space="preserve" font-family="AvenirNext-Medium" font-size="50.0" fill="#FEFFFF" transform="matrix(1.00, 0.00, -0.00, -1.00, 309.8, 884.0)">s</text><text xml:space="preserve" font-family="AvenirNext-Medium" font-size="50.0" fill="#FEFFFF" transform="matrix(1.00, 0.00, -0.00, -1.00, 332.0, 884.0)"> </text><text xml:space="preserve" font-family="AvenirNext-Medium" font-size="50.0" fill="#FEFFFF" transform="matrix(1.00, 0.00, -0.00, -1.00, 344.5, 884.0)">w</text><text xml:space="preserve" font-family="AvenirNext-Medium" font-size="50.0" fill="#FEFFFF" transform="matrix(1.00, 0.00, -0.00, -1.00, 383.1, 884.0)">e</text><text xml:space="preserve" font-family="AvenirNext-Medium" font-size="50.0" fill="#FEFFFF" transform="matrix(1.00, 0.00, -0.00, -1.00, 411.8, 884.0)"> </text><text xml:space="preserve" font-family="AvenirNext-Medium" font-size="50.0" fill="#FEFFFF" transform="matrix(1.00, 0.00, -0.00, -1.00, 424.3, 884.0)">l</text><text xml:space="preserve" font-family="AvenirNext-Medium" font-size="50.0" fill="#FEFFFF" transform="matrix(1.00, 0.00, -0.00, -1.00, 437.3, 884.0)">i</text><text xml:space="preserve" font-family="AvenirNext-Medium" font-size="50.0" fill="#FEFFFF" transform="matrix(1.00, 0.00, -0.00, -1.00, 450.2, 884.0)">k</text><text xml:space="preserve" font-family="AvenirNext-Medium" font-size="50.0" fill="#FEFFFF" transform="matrix(1.00, 0.00, -0.00, -1.00, 475.7, 884.0)">e</text><text xml:space="preserve" font-family="AvenirNext-Medium" font-size="50.0" fill="#FEFFFF" transform="matrix(1.00, 0.00, -0.00, -1.00, 504.4, 884.0)">:</text><text xml:space="preserve" font-family="AvenirNext-Medium" font-size="50.0" fill="#FEFFFF" transform="matrix(1.00, 0.00, -0.00, -1.00, 519.4, 884.0)"> </text><text xml:space="preserve" font-family="AvenirNext-Regular" font-size="50.0" fill="#FEFFFF" transform="matrix(1.00, 0.00, -0.00, -1.00, 183.0, 816.3)">•</text><text xml:space="preserve" font-family="AvenirNext-Regular" font-size="50.0" fill="#FEFFFF" transform="matrix(1.00, 0.00, -0.00, -1.00, 208.0, 816.0)">C</text><text xml:space="preserve" font-family="AvenirNext-Regular" font-size="50.0" fill="#FEFFFF" transform="matrix(1.00, 0.00, -0.00, -1.00, 243.4, 816.0)">o</text><text xml:space="preserve" font-family="AvenirNext-Regular" font-size="50.0" fill="#FEFFFF" transform="matrix(1.00, 0.00, -0.00, -1.00, 273.9, 816.0)">n</text><text xml:space="preserve" font-family="AvenirNext-Regular" font-size="50.0" fill="#FEFFFF" transform="matrix(1.00, 0.00, -0.00, -1.00, 303.0, 816.0)">a</text><text xml:space="preserve" font-family="AvenirNext-Regular" font-size="50.0" fill="#FEFFFF" transform="matrix(1.00, 0.00, -0.00, -1.00, 329.7, 816.0)">n</text><text xml:space="preserve" font-family="AvenirNext-Regular" font-size="50.0" fill="#FEFFFF" transform="matrix(1.00, 0.00, -0.00, -1.00, 358.8, 816.0)"> </text><text xml:space="preserve" font-family="AvenirNext-Regular" font-size="50.0" fill="#FEFFFF" transform="matrix(1.00, 0.00, -0.00, -1.00, 183.0, 748.3)">•</text><text xml:space="preserve" font-family="AvenirNext-Regular" font-size="50.0" fill="#FEFFFF" transform="matrix(1.00, 0.00, -0.00, -1.00, 208.0, 748.0)">W</text><text xml:space="preserve" font-family="AvenirNext-Regular" font-size="50.0" fill="#FEFFFF" transform="matrix(1.00, 0.00, -0.00, -1.00, 256.6, 748.0)">i</text><text xml:space="preserve" font-family="AvenirNext-Regular" font-size="50.0" fill="#FEFFFF" transform="matrix(1.00, 0.00, -0.00, -1.00, 269.1, 748.0)">l</text><text xml:space="preserve" font-family="AvenirNext-Regular" font-size="50.0" fill="#FEFFFF" transform="matrix(1.00, 0.00, -0.00, -1.00, 281.7, 748.0)">l</text><text xml:space="preserve" font-family="AvenirNext-Regular" font-size="50.0" fill="#FEFFFF" transform="matrix(1.00, 0.00, -0.00, -1.00, 294.3, 748.0)"> </text><text xml:space="preserve" font-family="AvenirNext-Regular" font-size="50.0" fill="#FEFFFF" transform="matrix(1.00, 0.00, -0.00, -1.00, 306.8, 748.0)">F</text><text xml:space="preserve" font-family="AvenirNext-Regular" font-size="50.0" fill="#FEFFFF" transform="matrix(1.00, 0.00, -0.00, -1.00, 332.5, 748.0)">e</text><text xml:space="preserve" font-family="AvenirNext-Regular" font-size="50.0" fill="#FEFFFF" transform="matrix(1.00, 0.00, -0.00, -1.00, 361.1, 748.0)">r</text><text xml:space="preserve" font-family="AvenirNext-Regular" font-size="50.0" fill="#FEFFFF" transform="matrix(1.00, 0.00, -0.00, -1.00, 379.1, 748.0)">r</text><text xml:space="preserve" font-family="AvenirNext-Regular" font-size="50.0" fill="#FEFFFF" transform="matrix(1.00, 0.00, -0.00, -1.00, 396.2, 748.0)">e</text><text xml:space="preserve" font-family="AvenirNext-Regular" font-size="50.0" fill="#FEFFFF" transform="matrix(1.00, 0.00, -0.00, -1.00, 424.8, 748.0)">l</text><text xml:space="preserve" font-family="AvenirNext-Regular" font-size="50.0" fill="#FEFFFF" transform="matrix(1.00, 0.00, -0.00, -1.00, 437.4, 748.0)">l</text><text xml:space="preserve" font-family="AvenirNext-Regular" font-size="50.0" fill="#FEFFFF" transform="matrix(1.00, 0.00, -0.00, -1.00, 450.0, 748.0)"> </text><text xml:space="preserve" font-family="AvenirNext-Regular" font-size="50.0" fill="#FEFFFF" transform="matrix(1.00, 0.00, -0.00, -1.00, 183.0, 680.3)">•</text><text xml:space="preserve" font-family="AvenirNext-Regular" font-size="50.0" fill="#FEFFFF" transform="matrix(1.00, 0.00, -0.00, -1.00, 208.0, 680.0)">S</text><text xml:space="preserve" font-family="AvenirNext-Regular" font-size="50.0" fill="#FEFFFF" transform="matrix(1.00, 0.00, -0.00, -1.00, 235.9, 680.0)">t</text><text xml:space="preserve" font-family="AvenirNext-Regular" font-size="50.0" fill="#FEFFFF" transform="matrix(1.00, 0.00, -0.00, -1.00, 251.8, 680.0)">e</text><text xml:space="preserve" font-family="AvenirNext-Regular" font-size="50.0" fill="#FEFFFF" transform="matrix(1.00, 0.00, -0.00, -1.00, 280.4, 680.0)">v</text><text xml:space="preserve" font-family="AvenirNext-Regular" font-size="50.0" fill="#FEFFFF" transform="matrix(1.00, 0.00, -0.00, -1.00, 304.8, 680.0)">e</text><text xml:space="preserve" font-family="AvenirNext-Regular" font-size="50.0" fill="#FEFFFF" transform="matrix(1.00, 0.00, -0.00, -1.00, 333.4, 680.0)"> </text><text xml:space="preserve" font-family="AvenirNext-Regular" font-size="50.0" fill="#FEFFFF" transform="matrix(1.00, 0.00, -0.00, -1.00, 345.9, 680.0)">B</text><text xml:space="preserve" font-family="AvenirNext-Regular" font-size="50.0" fill="#FEFFFF" transform="matrix(1.00, 0.00, -0.00, -1.00, 377.6, 680.0)">u</text><text xml:space="preserve" font-family="AvenirNext-Regular" font-size="50.0" fill="#FEFFFF" transform="matrix(1.00, 0.00, -0.00, -1.00, 406.7, 680.0)">s</text><text xml:space="preserve" font-family="AvenirNext-Regular" font-size="50.0" fill="#FEFFFF" transform="matrix(1.00, 0.00, -0.00, -1.00, 428.9, 680.0)">c</text><text xml:space="preserve" font-family="AvenirNext-Regular" font-size="50.0" fill="#FEFFFF" transform="matrix(1.00, 0.00, -0.00, -1.00, 453.9, 680.0)">e</text><text xml:space="preserve" font-family="AvenirNext-Regular" font-size="50.0" fill="#FEFFFF" transform="matrix(1.00, 0.00, -0.00, -1.00, 482.5, 680.0)">m</text><text xml:space="preserve" font-family="AvenirNext-Regular" font-size="50.0" fill="#FEFFFF" transform="matrix(1.00, 0.00, -0.00, -1.00, 526.7, 680.0)">i</text><text xml:space="preserve" font-family="AvenirNext-Regular" font-size="50.0" fill="#FEFFFF" transform="matrix(1.00, 0.00, -0.00, -1.00, 539.2, 680.0)"> </text><text xml:space="preserve" font-family="AvenirNext-Regular" font-size="50.0" fill="#FEFFFF" transform="matrix(1.00, 0.00, -0.00, -1.00, 183.0, 612.3)">•</text><text xml:space="preserve" font-family="AvenirNext-Regular" font-size="50.0" fill="#FEFFFF" transform="matrix(1.00, 0.00, -0.00, -1.00, 208.0, 612.0)">W</text><text xml:space="preserve" font-family="AvenirNext-Regular" font-size="50.0" fill="#FEFFFF" transform="matrix(1.00, 0.00, -0.00, -1.00, 256.6, 612.0)">i</text><text xml:space="preserve" font-family="AvenirNext-Regular" font-size="50.0" fill="#FEFFFF" transform="matrix(1.00, 0.00, -0.00, -1.00, 269.1, 612.0)">l</text><text xml:space="preserve" font-family="AvenirNext-Regular" font-size="50.0" fill="#FEFFFF" transform="matrix(1.00, 0.00, -0.00, -1.00, 281.7, 612.0)">l</text><text xml:space="preserve" font-family="AvenirNext-Regular" font-size="50.0" fill="#FEFFFF" transform="matrix(1.00, 0.00, -0.00, -1.00, 294.3, 612.0)"> </text><text xml:space="preserve" font-family="AvenirNext-Regular" font-size="50.0" fill="#FEFFFF" transform="matrix(1.00, 0.00, -0.00, -1.00, 305.9, 612.0)">A</text><text xml:space="preserve" font-family="AvenirNext-Regular" font-size="50.0" fill="#FEFFFF" transform="matrix(1.00, 0.00, -0.00, -1.00, 340.9, 612.0)">r</text><text xml:space="preserve" font-family="AvenirNext-Regular" font-size="50.0" fill="#FEFFFF" transform="matrix(1.00, 0.00, -0.00, -1.00, 358.9, 612.0)">n</text><text xml:space="preserve" font-family="AvenirNext-Regular" font-size="50.0" fill="#FEFFFF" transform="matrix(1.00, 0.00, -0.00, -1.00, 388.0, 612.0)">e</text><text xml:space="preserve" font-family="AvenirNext-Regular" font-size="50.0" fill="#FEFFFF" transform="matrix(1.00, 0.00, -0.00, -1.00, 416.6, 612.0)">t</text><text xml:space="preserve" font-family="AvenirNext-Regular" font-size="50.0" fill="#FEFFFF" transform="matrix(1.00, 0.00, -0.00, -1.00, 431.8, 612.0)">t</text><text xml:space="preserve" font-family="AvenirNext-Regular" font-size="50.0" fill="#FEFFFF" transform="matrix(1.00, 0.00, -0.00, -1.00, 447.6, 612.0)"> </text><text xml:space="preserve" font-family="AvenirNext-Regular" font-size="50.0" fill="#FEFFFF" transform="matrix(1.00, 0.00, -0.00, -1.00, 183.0, 544.3)">•</text><text xml:space="preserve" font-family="AvenirNext-Regular" font-size="50.0" fill="#FEFFFF" transform="matrix(1.00, 0.00, -0.00, -1.00, 208.0, 544.0)">B</text><text xml:space="preserve" font-family="AvenirNext-Regular" font-size="50.0" fill="#FEFFFF" transform="matrix(1.00, 0.00, -0.00, -1.00, 239.8, 544.0)">r</text><text xml:space="preserve" font-family="AvenirNext-Regular" font-size="50.0" fill="#FEFFFF" transform="matrix(1.00, 0.00, -0.00, -1.00, 257.8, 544.0)">i</text><text xml:space="preserve" font-family="AvenirNext-Regular" font-size="50.0" fill="#FEFFFF" transform="matrix(1.00, 0.00, -0.00, -1.00, 270.3, 544.0)">a</text><text xml:space="preserve" font-family="AvenirNext-Regular" font-size="50.0" fill="#FEFFFF" transform="matrix(1.00, 0.00, -0.00, -1.00, 297.0, 544.0)">n</text><text xml:space="preserve" font-family="AvenirNext-Regular" font-size="50.0" fill="#FEFFFF" transform="matrix(1.00, 0.00, -0.00, -1.00, 326.1, 544.0)"> </text><text xml:space="preserve" font-family="AvenirNext-Regular" font-size="50.0" fill="#FEFFFF" transform="matrix(1.00, 0.00, -0.00, -1.00, 338.6, 544.0)">C</text><text xml:space="preserve" font-family="AvenirNext-Regular" font-size="50.0" fill="#FEFFFF" transform="matrix(1.00, 0.00, -0.00, -1.00, 374.6, 544.0)">r</text><text xml:space="preserve" font-family="AvenirNext-Regular" font-size="50.0" fill="#FEFFFF" transform="matrix(1.00, 0.00, -0.00, -1.00, 392.0, 544.0)">a</text><text xml:space="preserve" font-family="AvenirNext-Regular" font-size="50.0" fill="#FEFFFF" transform="matrix(1.00, 0.00, -0.00, -1.00, 418.7, 544.0)">n</text><text xml:space="preserve" font-family="AvenirNext-Regular" font-size="50.0" fill="#FEFFFF" transform="matrix(1.00, 0.00, -0.00, -1.00, 447.7, 544.0)">s</text><text xml:space="preserve" font-family="AvenirNext-Regular" font-size="50.0" fill="#FEFFFF" transform="matrix(1.00, 0.00, -0.00, -1.00, 469.9, 544.0)">t</text><text xml:space="preserve" font-family="AvenirNext-Regular" font-size="50.0" fill="#FEFFFF" transform="matrix(1.00, 0.00, -0.00, -1.00, 485.8, 544.0)">o</text><text xml:space="preserve" font-family="AvenirNext-Regular" font-size="50.0" fill="#FEFFFF" transform="matrix(1.00, 0.00, -0.00, -1.00, 516.3, 544.0)">n</text><text xml:space="preserve" font-family="AvenirNext-Regular" font-size="50.0" fill="#FEFFFF" transform="matrix(1.00, 0.00, -0.00, -1.00, 545.4, 544.0)"> </text><text xml:space="preserve" font-family="AvenirNext-Regular" font-size="50.0" fill="#FEFFFF" transform="matrix(1.00, 0.00, -0.00, -1.00, 183.0, 476.3)">•</text><text xml:space="preserve" font-family="AvenirNext-Regular" font-size="50.0" fill="#FEFFFF" transform="matrix(1.00, 0.00, -0.00, -1.00, 208.0, 476.0)">D</text><text xml:space="preserve" font-family="AvenirNext-Regular" font-size="50.0" fill="#FEFFFF" transform="matrix(1.00, 0.00, -0.00, -1.00, 245.8, 476.0)">a</text><text xml:space="preserve" font-family="AvenirNext-Regular" font-size="50.0" fill="#FEFFFF" transform="matrix(1.00, 0.00, -0.00, -1.00, 272.6, 476.0)">n</text><text xml:space="preserve" font-family="AvenirNext-Regular" font-size="50.0" fill="#FEFFFF" transform="matrix(1.00, 0.00, -0.00, -1.00, 301.6, 476.0)">a</text><text xml:space="preserve" font-family="AvenirNext-Regular" font-size="50.0" fill="#FEFFFF" transform="matrix(1.00, 0.00, -0.00, -1.00, 328.3, 476.0)"> </text><text xml:space="preserve" font-family="AvenirNext-Regular" font-size="50.0" fill="#FEFFFF" transform="matrix(1.00, 0.00, -0.00, -1.00, 340.8, 476.0)">C</text><text xml:space="preserve" font-family="AvenirNext-Regular" font-size="50.0" fill="#FEFFFF" transform="matrix(1.00, 0.00, -0.00, -1.00, 375.9, 476.0)">a</text><text xml:space="preserve" font-family="AvenirNext-Regular" font-size="50.0" fill="#FEFFFF" transform="matrix(1.00, 0.00, -0.00, -1.00, 402.6, 476.0)">r</text><text xml:space="preserve" font-family="AvenirNext-Regular" font-size="50.0" fill="#FEFFFF" transform="matrix(1.00, 0.00, -0.00, -1.00, 420.6, 476.0)">v</text><text xml:space="preserve" font-family="AvenirNext-Regular" font-size="50.0" fill="#FEFFFF" transform="matrix(1.00, 0.00, -0.00, -1.00, 445.0, 476.0)">e</text><text xml:space="preserve" font-family="AvenirNext-Regular" font-size="50.0" fill="#FEFFFF" transform="matrix(1.00, 0.00, -0.00, -1.00, 473.6, 476.0)">y</text><text xml:space="preserve" font-family="AvenirNext-Regular" font-size="50.0" fill="#FEFFFF" transform="matrix(1.00, 0.00, -0.00, -1.00, 498.0, 476.0)"> </text><text xml:space="preserve" font-family="AvenirNext-Regular" font-size="50.0" fill="#FEFFFF" transform="matrix(1.00, 0.00, -0.00, -1.00, 183.0, 408.3)">•</text><text xml:space="preserve" font-family="AvenirNext-Regular" font-size="50.0" fill="#FEFFFF" transform="matrix(1.00, 0.00, -0.00, -1.00, 208.0, 408.0)">M</text><text xml:space="preserve" font-family="AvenirNext-Regular" font-size="50.0" fill="#FEFFFF" transform="matrix(1.00, 0.00, -0.00, -1.00, 252.3, 408.0)">a</text><text xml:space="preserve" font-family="AvenirNext-Regular" font-size="50.0" fill="#FEFFFF" transform="matrix(1.00, 0.00, -0.00, -1.00, 279.0, 408.0)">r</text><text xml:space="preserve" font-family="AvenirNext-Regular" font-size="50.0" fill="#FEFFFF" transform="matrix(1.00, 0.00, -0.00, -1.00, 296.4, 408.0)">t</text><text xml:space="preserve" font-family="AvenirNext-Regular" font-size="50.0" fill="#FEFFFF" transform="matrix(1.00, 0.00, -0.00, -1.00, 312.2, 408.0)">i</text><text xml:space="preserve" font-family="AvenirNext-Regular" font-size="50.0" fill="#FEFFFF" transform="matrix(1.00, 0.00, -0.00, -1.00, 324.8, 408.0)">n</text><text xml:space="preserve" font-family="AvenirNext-Regular" font-size="50.0" fill="#FEFFFF" transform="matrix(1.00, 0.00, -0.00, -1.00, 353.8, 408.0)"> </text><text xml:space="preserve" font-family="AvenirNext-Regular" font-size="50.0" fill="#FEFFFF" transform="matrix(1.00, 0.00, -0.00, -1.00, 366.3, 408.0)">S</text><text xml:space="preserve" font-family="AvenirNext-Regular" font-size="50.0" fill="#FEFFFF" transform="matrix(1.00, 0.00, -0.00, -1.00, 394.5, 408.0)">h</text><text xml:space="preserve" font-family="AvenirNext-Regular" font-size="50.0" fill="#FEFFFF" transform="matrix(1.00, 0.00, -0.00, -1.00, 423.6, 408.0)">o</text><text xml:space="preserve" font-family="AvenirNext-Regular" font-size="50.0" fill="#FEFFFF" transform="matrix(1.00, 0.00, -0.00, -1.00, 454.2, 408.0)">r</text><text xml:space="preserve" font-family="AvenirNext-Regular" font-size="50.0" fill="#FEFFFF" transform="matrix(1.00, 0.00, -0.00, -1.00, 471.3, 408.0)">e</text><text xml:space="preserve" font-family="AvenirNext-Regular" font-size="50.0" fill="#FEFFFF" transform="matrix(1.00, 0.00, -0.00, -1.00, 499.9, 408.0)"> </text><text xml:space="preserve" font-family="AvenirNext-Regular" font-size="50.0" fill="#FEFFFF" transform="matrix(1.00, 0.00, -0.00, -1.00, 183.0, 340.3)">•</text><text xml:space="preserve" font-family="AvenirNext-Regular" font-size="50.0" fill="#FEFFFF" transform="matrix(1.00, 0.00, -0.00, -1.00, 208.0, 340.0)">M</text><text xml:space="preserve" font-family="AvenirNext-Regular" font-size="50.0" fill="#FEFFFF" transform="matrix(1.00, 0.00, -0.00, -1.00, 252.3, 340.0)">a</text><text xml:space="preserve" font-family="AvenirNext-Regular" font-size="50.0" fill="#FEFFFF" transform="matrix(1.00, 0.00, -0.00, -1.00, 278.5, 340.0)">t</text><text xml:space="preserve" font-family="AvenirNext-Regular" font-size="50.0" fill="#FEFFFF" transform="matrix(1.00, 0.00, -0.00, -1.00, 293.8, 340.0)">t</text><text xml:space="preserve" font-family="AvenirNext-Regular" font-size="50.0" fill="#FEFFFF" transform="matrix(1.00, 0.00, -0.00, -1.00, 309.6, 340.0)"> </text><text xml:space="preserve" font-family="AvenirNext-Regular" font-size="50.0" fill="#FEFFFF" transform="matrix(1.00, 0.00, -0.00, -1.00, 322.1, 340.0)">R</text><text xml:space="preserve" font-family="AvenirNext-Regular" font-size="50.0" fill="#FEFFFF" transform="matrix(1.00, 0.00, -0.00, -1.00, 351.5, 340.0)">o</text><text xml:space="preserve" font-family="AvenirNext-Regular" font-size="50.0" fill="#FEFFFF" transform="matrix(1.00, 0.00, -0.00, -1.00, 382.0, 340.0)">s</text><text xml:space="preserve" font-family="AvenirNext-Regular" font-size="50.0" fill="#FEFFFF" transform="matrix(1.00, 0.00, -0.00, -1.00, 404.2, 340.0)">s</text><text xml:space="preserve" font-family="AvenirNext-Regular" font-size="50.0" fill="#FEFFFF" transform="matrix(1.00, 0.00, -0.00, -1.00, 426.4, 340.0)"> </text><text xml:space="preserve" font-family="AvenirNext-Regular" font-size="50.0" fill="#FEFFFF" transform="matrix(1.00, 0.00, -0.00, -1.00, 183.0, 272.3)">•</text><text xml:space="preserve" font-family="AvenirNext-Regular" font-size="50.0" fill="#FEFFFF" transform="matrix(1.00, 0.00, -0.00, -1.00, 208.0, 272.0)">J</text><text xml:space="preserve" font-family="AvenirNext-Regular" font-size="50.0" fill="#FEFFFF" transform="matrix(1.00, 0.00, -0.00, -1.00, 232.6, 272.0)">o</text><text xml:space="preserve" font-family="AvenirNext-Regular" font-size="50.0" fill="#FEFFFF" transform="matrix(1.00, 0.00, -0.00, -1.00, 263.1, 272.0)">h</text><text xml:space="preserve" font-family="AvenirNext-Regular" font-size="50.0" fill="#FEFFFF" transform="matrix(1.00, 0.00, -0.00, -1.00, 292.3, 272.0)">n</text><text xml:space="preserve" font-family="AvenirNext-Regular" font-size="50.0" fill="#FEFFFF" transform="matrix(1.00, 0.00, -0.00, -1.00, 321.4, 272.0)"> </text><text xml:space="preserve" font-family="AvenirNext-Regular" font-size="50.0" fill="#FEFFFF" transform="matrix(1.00, 0.00, -0.00, -1.00, 333.9, 272.0)">R</text><text xml:space="preserve" font-family="AvenirNext-Regular" font-size="50.0" fill="#FEFFFF" transform="matrix(1.00, 0.00, -0.00, -1.00, 363.2, 272.0)">a</text><text xml:space="preserve" font-family="AvenirNext-Regular" font-size="50.0" fill="#FEFFFF" transform="matrix(1.00, 0.00, -0.00, -1.00, 389.4, 272.0)">t</text><text xml:space="preserve" font-family="AvenirNext-Regular" font-size="50.0" fill="#FEFFFF" transform="matrix(1.00, 0.00, -0.00, -1.00, 405.2, 272.0)">z</text><text xml:space="preserve" font-family="AvenirNext-Regular" font-size="50.0" fill="#FEFFFF" transform="matrix(1.00, 0.00, -0.00, -1.00, 427.4, 272.0)">e</text><text xml:space="preserve" font-family="AvenirNext-Regular" font-size="50.0" fill="#FEFFFF" transform="matrix(1.00, 0.00, -0.00, -1.00, 456.0, 272.0)">n</text><text xml:space="preserve" font-family="AvenirNext-Regular" font-size="50.0" fill="#FEFFFF" transform="matrix(1.00, 0.00, -0.00, -1.00, 485.0, 272.0)">b</text><text xml:space="preserve" font-family="AvenirNext-Regular" font-size="50.0" fill="#FEFFFF" transform="matrix(1.00, 0.00, -0.00, -1.00, 516.9, 272.0)">e</text><text xml:space="preserve" font-family="AvenirNext-Regular" font-size="50.0" fill="#FEFFFF" transform="matrix(1.00, 0.00, -0.00, -1.00, 545.5, 272.0)">r</text><text xml:space="preserve" font-family="AvenirNext-Regular" font-size="50.0" fill="#FEFFFF" transform="matrix(1.00, 0.00, -0.00, -1.00, 562.6, 272.0)">g</text><text xml:space="preserve" font-family="AvenirNext-Regular" font-size="50.0" fill="#FEFFFF" transform="matrix(1.00, 0.00, -0.00, -1.00, 594.2, 272.0)">e</text><text xml:space="preserve" font-family="AvenirNext-Regular" font-size="50.0" fill="#FEFFFF" transform="matrix(1.00, 0.00, -0.00, -1.00, 622.8, 272.0)">r</text></g></svg>